<?xml version="1.0" encoding="utf-8"?>
<!-- Generator: Adobe Illustrator 23.0.2, SVG Export Plug-In . SVG Version: 6.00 Build 0)  -->
<svg version="1.1" id="Layer_1" xmlns="http://www.w3.org/2000/svg" xmlns:xlink="http://www.w3.org/1999/xlink" x="0px" y="0px"
	 viewBox="0 0 46.8 32" style="enable-background:new 0 0 46.8 32;" xml:space="preserve">
<path d="M14.5,9h7.2l2-7.6c0.2-0.9,1.1-1.5,2.2-1.3c0.9,0.2,1.5,1.1,1.3,2.2c0,0,0,0,0,0.2l-1.7,6.7h5.4c0.9-0.2,1.7,0.7,1.7,1.5
	c0,0.9-0.9,1.7-1.7,1.7h-6.3l-1.7,7.2h4.6c1.1,0,1.7,0.9,1.7,1.7c0,1.1-0.9,1.7-1.7,1.7h-5.6l-2,7.6c-0.2,0.9-1.3,1.5-2.2,1.3
	c-0.9-0.2-1.5-1.3-1.3-2.2l1.7-6.7h-7.2l-2,7.6c-0.2,0.9-1.3,1.5-2.2,1.3s-1.5-1.3-1.3-2.2L7.1,23H1.7C0.6,23,0,22.1,0,21.3
	c0-1.1,0.9-1.7,1.7-1.7H8l1.7-7.2H5.4c-1.1,0-1.7-0.9-1.7-1.7C3.7,9.8,4.6,9,5.4,9h5.4l2-7.6C13,0.5,13.9-0.1,15,0.1
	c0.9,0.2,1.5,1.1,1.3,2.2c0,0,0,0,0,0.2L14.5,9z M13.7,12.7L12,19.9h7.2l1.7-7.2H13.7z"/>
<g>
	<path d="M45.8,0.5c-0.2-0.4-0.8-0.6-1.2-0.4S44,0.8,44.2,1.2c1.9,3.7-0.2,6.9-1.9,8.7l-1-1c-0.4-0.4-1-0.6-1.5-0.4l-4.4,0.8
		c-0.4,0-1.2,0.4-1.5,0.8L22.3,21.8c-0.6,0.6-0.6,1.5,0,2.1l7.5,7.7c0.6,0.6,1.3,0.4,1.9-0.2l11.6-11.7c0.4-0.4,0.6-1,0.8-1.5
		l0.8-4.8c0-0.4-0.2-1.2-0.4-1.5l-0.6-0.6C46,8.7,48.1,4.7,45.8,0.5z M41.9,14.9c-1,1-2.3,1-3.3,0s-1-2.3,0-3.3
		c0.8-0.8,1.7-0.8,2.7-0.4c-0.4,0.4-0.6,0.4-0.6,0.6c-0.4,0.2-0.4,0.8-0.2,1.2c0.2,0.2,0.6,0.4,0.8,0.4s0.2,0,0.4-0.2
		s0.6-0.4,0.8-0.6C42.7,13.2,42.5,14.1,41.9,14.9z"/>
</g>
</svg>
