<?xml version="1.0" encoding="utf-8"?>
<!-- Generator: Adobe Illustrator 22.1.0, SVG Export Plug-In . SVG Version: 6.00 Build 0)  -->
<svg version="1.1" xmlns="http://www.w3.org/2000/svg" xmlns:xlink="http://www.w3.org/1999/xlink" x="0px" y="0px"
	 viewBox="0 0 512 512" style="enable-background:new 0 0 512 512;" xml:space="preserve">
<style type="text/css">
	.st0{opacity:0.8;}
	.st1{fill:#FFFFFF;}
</style>
<g id="_x31__x5F_RELLENO">
</g>
<g id="_x32__x5F_RELLENO">
</g>
<g id="_x33__x5F_RELLENO">
</g>
<g id="_x34__x5F_RELLENO">
</g>
<g id="_x35__x5F_RELLENO">
</g>
<g id="_x31__x5F_SINRELLENO">
	<g>
		<g>
			<g>
				<path class="st1" d="M207.5,490.5h-55V332c0-37.1,28.5-67.6,64.7-70.9v-85c-16.5-3-29.1-17.6-29.1-35c0-6.2-5.1-11.3-11.3-11.3
					h-24.3V64.4c0-35.2,28.7-63.9,63.9-63.9s63.9,28.7,63.9,63.9h-12.9c0-28.1-22.9-50.9-50.9-50.9s-50.9,22.9-50.9,50.9v52.6h11.3
					c13.4,0,24.3,10.9,24.3,24.3c0,12.5,10.2,22.6,22.6,22.6h6.5v110h-6.5c-32.1,0-58.2,26.1-58.2,58.2v145.5h29.1V344.9h34v12.9
					h-21V490.5z"/>
			</g>
			<g>
				<rect x="299.7" y="288.3" class="st1" width="12.9" height="139.1"/>
			</g>
			<g>
				<path class="st1" d="M325.5,511.5H209.1v-12.9h103.5v-40.4h34v-165c0-32.1-26.1-58.2-58.2-58.2c-11.6,0-21-9.4-21-21V100.8h12.9
					V214c0,4.5,3.6,8.1,8.1,8.1c39.2,0,71.2,31.9,71.2,71.2v177.9h-34V511.5z"/>
			</g>
		</g>
		<g>
			<g>
				<path class="st1" d="M207.5,490.5h-55V332c0-37.1,28.5-67.6,64.7-70.9v-85c-16.5-3-29.1-17.6-29.1-35c0-6.2-5.1-11.3-11.3-11.3
					h-24.3V64.4c0-35.2,28.7-63.9,63.9-63.9s63.9,28.7,63.9,63.9h-12.9c0-28.1-22.9-50.9-50.9-50.9s-50.9,22.9-50.9,50.9v52.6h11.3
					c13.4,0,24.3,10.9,24.3,24.3c0,12.5,10.2,22.6,22.6,22.6h6.5v110h-6.5c-32.1,0-58.2,26.1-58.2,58.2v145.5h29.1V344.9h34v12.9
					h-21V490.5z"/>
			</g>
			<g>
				<rect x="299.7" y="288.3" class="st1" width="12.9" height="139.1"/>
			</g>
			<g>
				<path class="st1" d="M325.5,511.5H207.5v-12.9h105.1v-40.4h34v-165c0-32.1-26.1-58.2-58.2-58.2c-11.6,0-21-9.4-21-21V100.8h12.9
					V214c0,4.5,3.6,8.1,8.1,8.1c39.2,0,71.2,31.9,71.2,71.2v177.9h-34V511.5z"/>
			</g>
		</g>
	</g>
</g>
<g id="_x32__x5F_SINRELLENO">
</g>
<g id="_x33__x5F_SINRELLENO">
</g>
<g id="_x34__x5F_SINRELLENO">
</g>
<g id="_x35__x5F_SINRELLENO">
</g>
</svg>
