<?xml version="1.0" encoding="utf-8"?>
<!-- Generator: Adobe Illustrator 22.1.0, SVG Export Plug-In . SVG Version: 6.00 Build 0)  -->
<svg version="1.1" xmlns="http://www.w3.org/2000/svg" xmlns:xlink="http://www.w3.org/1999/xlink" x="0px" y="0px"
	 viewBox="0 0 934 512" style="enable-background:new 0 0 934 512;" xml:space="preserve">
<style type="text/css">
	.st0{opacity:0.8;}
	.st1{fill:#FFFFFF;}
</style>
<g id="_x31__x5F_RELLENO">
</g>
<g id="_x32__x5F_RELLENO">
</g>
<g id="_x33__x5F_RELLENO">
</g>
<g id="_x34__x5F_RELLENO">
</g>
<g id="_x35__x5F_RELLENO">
</g>
<g id="_x31__x5F_SINRELLENO">
</g>
<g id="_x32__x5F_SINRELLENO">
</g>
<g id="_x33__x5F_SINRELLENO">
</g>
<g id="_x34__x5F_SINRELLENO">
	<g>
		<g>
			<g>
				<g>
					<path class="st1" d="M54.9,489.6H0V331.3c0-37,28.4-67.5,64.6-70.8v-84.9c-16.5-3-29.1-17.6-29.1-35c0-6.2-5.1-11.3-11.3-11.3
						H0V63.8C0,28.6,28.6,0,63.8,0s63.8,28.6,63.8,63.8h-12.9c0-28.1-22.8-50.9-50.9-50.9S12.9,35.8,12.9,63.8v52.5h11.3
						c13.4,0,24.2,10.9,24.2,24.2c0,12.5,10.1,22.6,22.6,22.6h6.5v109.9h-6.5c-32.1,0-58.2,26.1-58.2,58.2v145.4H42V344.2h33.9v12.9
						h-21V489.6z"/>
				</g>
				<g>
					<rect x="147" y="287.6" class="st1" width="12.9" height="139"/>
				</g>
				<g>
					<path class="st1" d="M172.9,510.6H56.6v-12.9H160v-40.4h33.9V292.5c0-32.1-26.1-58.2-58.2-58.2c-11.6,0-21-9.4-21-21V100.2
						h12.9v113.1c0,4.5,3.6,8.1,8.1,8.1c39.2,0,71.1,31.9,71.1,71.1v177.8h-33.9V510.6z"/>
				</g>
			</g>
			<g>
				<g>
					<path class="st1" d="M54.9,489.6H0V331.3c0-37,28.4-67.5,64.6-70.8v-84.9c-16.5-3-29.1-17.6-29.1-35c0-6.2-5.1-11.3-11.3-11.3
						H0V63.8C0,28.6,28.6,0,63.8,0s63.8,28.6,63.8,63.8h-12.9c0-28.1-22.8-50.9-50.9-50.9S12.9,35.8,12.9,63.8v52.5h11.3
						c13.4,0,24.2,10.9,24.2,24.2c0,12.5,10.1,22.6,22.6,22.6h6.5v109.9h-6.5c-32.1,0-58.2,26.1-58.2,58.2v145.4H42V344.2h33.9v12.9
						h-21V489.6z"/>
				</g>
				<g>
					<rect x="147" y="287.6" class="st1" width="12.9" height="139"/>
				</g>
				<g>
					<path class="st1" d="M172.9,510.6h-118v-12.9h105v-40.4h33.9V292.5c0-32.1-26.1-58.2-58.2-58.2c-11.6,0-21-9.4-21-21V100.2
						h12.9v113.1c0,4.5,3.6,8.1,8.1,8.1c39.2,0,71.1,31.9,71.1,71.1v177.8h-33.9V510.6z"/>
				</g>
			</g>
		</g>
		<g>
			<g>
				<g>
					<path class="st1" d="M297.3,489.6h-54.9V331.3c0-37,28.4-67.5,64.6-70.8v-84.9c-16.5-3-29.1-17.6-29.1-35
						c0-6.2-5.1-11.3-11.3-11.3h-24.2V63.8C242.4,28.6,271,0,306.2,0S370,28.6,370,63.8h-12.9c0-28.1-22.8-50.9-50.9-50.9
						c-28.1,0-50.9,22.8-50.9,50.9v52.5h11.3c13.4,0,24.2,10.9,24.2,24.2c0,12.5,10.1,22.6,22.6,22.6h6.5v109.9h-6.5
						c-32.1,0-58.2,26.1-58.2,58.2v145.4h29.1V344.2h33.9v12.9h-21V489.6z"/>
				</g>
				<g>
					<rect x="389.4" y="287.6" class="st1" width="12.9" height="139"/>
				</g>
				<g>
					<path class="st1" d="M415.3,510.6H298.9v-12.9h103.4v-40.4h33.9V292.5c0-32.1-26.1-58.2-58.2-58.2c-11.6,0-21-9.4-21-21V100.2
						H370v113.1c0,4.5,3.6,8.1,8.1,8.1c39.2,0,71.1,31.9,71.1,71.1v177.8h-33.9V510.6z"/>
				</g>
			</g>
			<g>
				<g>
					<path class="st1" d="M297.3,489.6h-54.9V331.3c0-37,28.4-67.5,64.6-70.8v-84.9c-16.5-3-29.1-17.6-29.1-35
						c0-6.2-5.1-11.3-11.3-11.3h-24.2V63.8C242.4,28.6,271,0,306.2,0S370,28.6,370,63.8h-12.9c0-28.1-22.8-50.9-50.9-50.9
						c-28.1,0-50.9,22.8-50.9,50.9v52.5h11.3c13.4,0,24.2,10.9,24.2,24.2c0,12.5,10.1,22.6,22.6,22.6h6.5v109.9h-6.5
						c-32.1,0-58.2,26.1-58.2,58.2v145.4h29.1V344.2h33.9v12.9h-21V489.6z"/>
				</g>
				<g>
					<rect x="389.4" y="287.6" class="st1" width="12.9" height="139"/>
				</g>
				<g>
					<path class="st1" d="M415.3,510.6h-118v-12.9h105v-40.4h33.9V292.5c0-32.1-26.1-58.2-58.2-58.2c-11.6,0-21-9.4-21-21V100.2H370
						v113.1c0,4.5,3.6,8.1,8.1,8.1c39.2,0,71.1,31.9,71.1,71.1v177.8h-33.9V510.6z"/>
				</g>
			</g>
		</g>
		<g>
			<g>
				<g>
					<path class="st1" d="M539.7,489.6h-54.9V331.3c0-37,28.4-67.5,64.6-70.8v-84.9c-16.5-3-29.1-17.6-29.1-35
						c0-6.2-5.1-11.3-11.3-11.3h-24.2V63.8c0-35.2,28.6-63.8,63.8-63.8c35.2,0,63.8,28.6,63.8,63.8h-12.9
						c0-28.1-22.8-50.9-50.9-50.9s-50.9,22.8-50.9,50.9v52.5H509c13.4,0,24.2,10.9,24.2,24.2c0,12.5,10.1,22.6,22.6,22.6h6.5v109.9
						h-6.5c-32.1,0-58.2,26.1-58.2,58.2v145.4h29.1V344.2h33.9v12.9h-21V489.6z"/>
				</g>
				<g>
					<rect x="631.8" y="287.6" class="st1" width="12.9" height="139"/>
				</g>
				<g>
					<path class="st1" d="M657.7,510.6H541.3v-12.9h103.4v-40.4h33.9V292.5c0-32.1-26.1-58.2-58.2-58.2c-11.6,0-21-9.4-21-21V100.2
						h12.9v113.1c0,4.5,3.6,8.1,8.1,8.1c39.2,0,71.1,31.9,71.1,71.1v177.8h-33.9V510.6z"/>
				</g>
			</g>
			<g>
				<g>
					<path class="st1" d="M539.7,489.6h-54.9V331.3c0-37,28.4-67.5,64.6-70.8v-84.9c-16.5-3-29.1-17.6-29.1-35
						c0-6.2-5.1-11.3-11.3-11.3h-24.2V63.8c0-35.2,28.6-63.8,63.8-63.8c35.2,0,63.8,28.6,63.8,63.8h-12.9
						c0-28.1-22.8-50.9-50.9-50.9s-50.9,22.8-50.9,50.9v52.5H509c13.4,0,24.2,10.9,24.2,24.2c0,12.5,10.1,22.6,22.6,22.6h6.5v109.9
						h-6.5c-32.1,0-58.2,26.1-58.2,58.2v145.4h29.1V344.2h33.9v12.9h-21V489.6z"/>
				</g>
				<g>
					<rect x="631.8" y="287.6" class="st1" width="12.9" height="139"/>
				</g>
				<g>
					<path class="st1" d="M657.7,510.6h-118v-12.9h105v-40.4h33.9V292.5c0-32.1-26.1-58.2-58.2-58.2c-11.6,0-21-9.4-21-21V100.2
						h12.9v113.1c0,4.5,3.6,8.1,8.1,8.1c39.2,0,71.1,31.9,71.1,71.1v177.8h-33.9V510.6z"/>
				</g>
			</g>
		</g>
		<g>
			<g>
				<g>
					<path class="st1" d="M782.1,489.6h-54.9V331.3c0-37,28.4-67.5,64.6-70.8v-84.9c-16.5-3-29.1-17.6-29.1-35
						c0-6.2-5.1-11.3-11.3-11.3h-24.2V63.8C727.2,28.6,755.8,0,791,0c35.2,0,63.8,28.6,63.8,63.8h-12.9c0-28.1-22.8-50.9-50.9-50.9
						s-50.9,22.8-50.9,50.9v52.5h11.3c13.4,0,24.2,10.9,24.2,24.2c0,12.5,10.1,22.6,22.6,22.6h6.5v109.9h-6.5
						c-32.1,0-58.2,26.1-58.2,58.2v145.4h29.1V344.2h33.9v12.9h-21V489.6z"/>
				</g>
				<g>
					<rect x="874.2" y="287.6" class="st1" width="12.9" height="139"/>
				</g>
				<g>
					<path class="st1" d="M900.1,510.6H783.7v-12.9h103.4v-40.4h33.9V292.5c0-32.1-26.1-58.2-58.2-58.2c-11.6,0-21-9.4-21-21V100.2
						h12.9v113.1c0,4.5,3.6,8.1,8.1,8.1c39.2,0,71.1,31.9,71.1,71.1v177.8h-33.9V510.6z"/>
				</g>
			</g>
			<g>
				<g>
					<path class="st1" d="M782.1,489.6h-54.9V331.3c0-37,28.4-67.5,64.6-70.8v-84.9c-16.5-3-29.1-17.6-29.1-35
						c0-6.2-5.1-11.3-11.3-11.3h-24.2V63.8C727.2,28.6,755.8,0,791,0c35.2,0,63.8,28.6,63.8,63.8h-12.9c0-28.1-22.8-50.9-50.9-50.9
						s-50.9,22.8-50.9,50.9v52.5h11.3c13.4,0,24.2,10.9,24.2,24.2c0,12.5,10.1,22.6,22.6,22.6h6.5v109.9h-6.5
						c-32.1,0-58.2,26.1-58.2,58.2v145.4h29.1V344.2h33.9v12.9h-21V489.6z"/>
				</g>
				<g>
					<rect x="874.2" y="287.6" class="st1" width="12.9" height="139"/>
				</g>
				<g>
					<path class="st1" d="M900.1,510.6h-118v-12.9h105v-40.4h33.9V292.5c0-32.1-26.1-58.2-58.2-58.2c-11.6,0-21-9.4-21-21V100.2
						h12.9v113.1c0,4.5,3.6,8.1,8.1,8.1c39.2,0,71.1,31.9,71.1,71.1v177.8h-33.9V510.6z"/>
				</g>
			</g>
		</g>
	</g>
</g>
<g id="_x35__x5F_SINRELLENO">
</g>
</svg>
