<?xml version="1.0" encoding="utf-8"?>
<!-- Generator: Adobe Illustrator 22.1.0, SVG Export Plug-In . SVG Version: 6.00 Build 0)  -->
<svg version="1.1" xmlns="http://www.w3.org/2000/svg" xmlns:xlink="http://www.w3.org/1999/xlink" x="0px" y="0px"
	 viewBox="0 0 693.5 512" style="enable-background:new 0 0 693.5 512;" xml:space="preserve">
<style type="text/css">
	.st0{opacity:0.8;}
	.st1{fill:#FFFFFF;}
</style>
<g id="_x31__x5F_RELLENO">
</g>
<g id="_x32__x5F_RELLENO">
</g>
<g id="_x33__x5F_RELLENO">
</g>
<g id="_x34__x5F_RELLENO">
</g>
<g id="_x35__x5F_RELLENO">
</g>
<g id="_x31__x5F_SINRELLENO">
</g>
<g id="_x32__x5F_SINRELLENO">
</g>
<g id="_x33__x5F_SINRELLENO">
	<g>
		<g>
			<g>
				<g>
					<path class="st1" d="M55.1,490.9H0V332.2c0-37.1,28.5-67.7,64.8-71V176C48.2,173,35.6,158.4,35.6,141c0-6.3-5.1-11.3-11.3-11.3
						H0V64C0,28.7,28.7,0,64,0s64,28.7,64,64h-13c0-28.1-22.9-51-51-51S13,35.9,13,64v52.7h11.3c13.4,0,24.3,10.9,24.3,24.3
						c0,12.5,10.2,22.7,22.7,22.7h6.5v110.2h-6.5C39.1,273.8,13,300,13,332.2V478h29.2V345.1h34v13H55.1V490.9z"/>
				</g>
				<g>
					<rect x="147.4" y="288.4" class="st1" width="13" height="139.3"/>
				</g>
				<g>
					<path class="st1" d="M173.4,512H56.7v-13h103.7v-40.5h34V293.3c0-32.2-26.2-58.3-58.3-58.3c-11.6,0-21.1-9.4-21.1-21.1V100.5
						h13v113.4c0,4.5,3.6,8.1,8.1,8.1c39.3,0,71.3,32,71.3,71.3v178.2h-34V512z"/>
				</g>
			</g>
			<g>
				<g>
					<path class="st1" d="M55.1,490.9H0V332.2c0-37.1,28.5-67.7,64.8-71V176C48.2,173,35.6,158.4,35.6,141c0-6.3-5.1-11.3-11.3-11.3
						H0V64C0,28.7,28.7,0,64,0s64,28.7,64,64h-13c0-28.1-22.9-51-51-51S13,35.9,13,64v52.7h11.3c13.4,0,24.3,10.9,24.3,24.3
						c0,12.5,10.2,22.7,22.7,22.7h6.5v110.2h-6.5C39.1,273.8,13,300,13,332.2V478h29.2V345.1h34v13H55.1V490.9z"/>
				</g>
				<g>
					<rect x="147.4" y="288.4" class="st1" width="13" height="139.3"/>
				</g>
				<g>
					<path class="st1" d="M173.4,512H55.1v-13h105.3v-40.5h34V293.3c0-32.2-26.2-58.3-58.3-58.3c-11.6,0-21.1-9.4-21.1-21.1V100.5
						h13v113.4c0,4.5,3.6,8.1,8.1,8.1c39.3,0,71.3,32,71.3,71.3v178.2h-34V512z"/>
				</g>
			</g>
		</g>
		<g>
			<g>
				<g>
					<path class="st1" d="M298.1,490.9H243V332.2c0-37.1,28.5-67.7,64.8-71V176c-16.6-3.1-29.2-17.6-29.2-35.1
						c0-6.3-5.1-11.3-11.3-11.3H243V64c0-35.3,28.7-64,64-64s64,28.7,64,64h-13c0-28.1-22.9-51-51-51c-28.1,0-51,22.9-51,51v52.7
						h11.3c13.4,0,24.3,10.9,24.3,24.3c0,12.5,10.2,22.7,22.7,22.7h6.5v110.2h-6.5c-32.2,0-58.3,26.2-58.3,58.3V478h29.2V345.1h34
						v13h-21.1V490.9z"/>
				</g>
				<g>
					<rect x="390.5" y="288.4" class="st1" width="13" height="139.3"/>
				</g>
				<g>
					<path class="st1" d="M416.4,512H299.7v-13h103.7v-40.5h34V293.3c0-32.2-26.2-58.3-58.3-58.3c-11.6,0-21.1-9.4-21.1-21.1V100.5
						h13v113.4c0,4.5,3.6,8.1,8.1,8.1c39.3,0,71.3,32,71.3,71.3v178.2h-34V512z"/>
				</g>
			</g>
			<g>
				<g>
					<path class="st1" d="M298.1,490.9H243V332.2c0-37.1,28.5-67.7,64.8-71V176c-16.6-3.1-29.2-17.6-29.2-35.1
						c0-6.3-5.1-11.3-11.3-11.3H243V64c0-35.3,28.7-64,64-64s64,28.7,64,64h-13c0-28.1-22.9-51-51-51c-28.1,0-51,22.9-51,51v52.7
						h11.3c13.4,0,24.3,10.9,24.3,24.3c0,12.5,10.2,22.7,22.7,22.7h6.5v110.2h-6.5c-32.2,0-58.3,26.2-58.3,58.3V478h29.2V345.1h34
						v13h-21.1V490.9z"/>
				</g>
				<g>
					<rect x="390.5" y="288.4" class="st1" width="13" height="139.3"/>
				</g>
				<g>
					<path class="st1" d="M416.4,512H298.1v-13h105.3v-40.5h34V293.3c0-32.2-26.2-58.3-58.3-58.3c-11.6,0-21.1-9.4-21.1-21.1V100.5
						h13v113.4c0,4.5,3.6,8.1,8.1,8.1c39.3,0,71.3,32,71.3,71.3v178.2h-34V512z"/>
				</g>
			</g>
		</g>
		<g>
			<g>
				<g>
					<path class="st1" d="M541.2,490.9h-55.1V332.2c0-37.1,28.5-67.7,64.8-71V176c-16.6-3.1-29.2-17.6-29.2-35.1
						c0-6.3-5.1-11.3-11.3-11.3h-24.3V64c0-35.3,28.7-64,64-64c35.3,0,64,28.7,64,64h-13c0-28.1-22.9-51-51-51
						c-28.1,0-51,22.9-51,51v52.7h11.3c13.4,0,24.3,10.9,24.3,24.3c0,12.5,10.2,22.7,22.7,22.7h6.5v110.2h-6.5
						c-32.2,0-58.3,26.2-58.3,58.3V478h29.2V345.1h34v13h-21.1V490.9z"/>
				</g>
				<g>
					<rect x="633.5" y="288.4" class="st1" width="13" height="139.3"/>
				</g>
				<g>
					<path class="st1" d="M659.4,512H542.8v-13h103.7v-40.5h34V293.3c0-32.2-26.2-58.3-58.3-58.3c-11.6,0-21.1-9.4-21.1-21.1V100.5
						h13v113.4c0,4.5,3.6,8.1,8.1,8.1c39.3,0,71.3,32,71.3,71.3v178.2h-34V512z"/>
				</g>
			</g>
			<g>
				<g>
					<path class="st1" d="M541.2,490.9h-55.1V332.2c0-37.1,28.5-67.7,64.8-71V176c-16.6-3.1-29.2-17.6-29.2-35.1
						c0-6.3-5.1-11.3-11.3-11.3h-24.3V64c0-35.3,28.7-64,64-64c35.3,0,64,28.7,64,64h-13c0-28.1-22.9-51-51-51
						c-28.1,0-51,22.9-51,51v52.7h11.3c13.4,0,24.3,10.9,24.3,24.3c0,12.5,10.2,22.7,22.7,22.7h6.5v110.2h-6.5
						c-32.2,0-58.3,26.2-58.3,58.3V478h29.2V345.1h34v13h-21.1V490.9z"/>
				</g>
				<g>
					<rect x="633.5" y="288.4" class="st1" width="13" height="139.3"/>
				</g>
				<g>
					<path class="st1" d="M659.4,512H541.2v-13h105.3v-40.5h34V293.3c0-32.2-26.2-58.3-58.3-58.3c-11.6,0-21.1-9.4-21.1-21.1V100.5
						h13v113.4c0,4.5,3.6,8.1,8.1,8.1c39.3,0,71.3,32,71.3,71.3v178.2h-34V512z"/>
				</g>
			</g>
		</g>
	</g>
</g>
<g id="_x34__x5F_SINRELLENO">
</g>
<g id="_x35__x5F_SINRELLENO">
</g>
</svg>
