<?xml version="1.0" encoding="utf-8"?>
<!-- Generator: Adobe Illustrator 22.1.0, SVG Export Plug-In . SVG Version: 6.00 Build 0)  -->
<svg version="1.1" xmlns="http://www.w3.org/2000/svg" xmlns:xlink="http://www.w3.org/1999/xlink" x="0px" y="0px"
	 viewBox="0 0 1178 512" style="enable-background:new 0 0 1178 512;" xml:space="preserve">
<style type="text/css">
	.st0{opacity:0.8;}
	.st1{fill:#FFFFFF;}
</style>
<g id="_x31__x5F_RELLENO">
</g>
<g id="_x32__x5F_RELLENO">
</g>
<g id="_x33__x5F_RELLENO">
</g>
<g id="_x34__x5F_RELLENO">
</g>
<g id="_x35__x5F_RELLENO">
</g>
<g id="_x31__x5F_SINRELLENO">
</g>
<g id="_x32__x5F_SINRELLENO">
</g>
<g id="_x33__x5F_SINRELLENO">
</g>
<g id="_x34__x5F_SINRELLENO">
</g>
<g id="_x35__x5F_SINRELLENO">
	<g>
		<g>
			<g>
				<g>
					<path class="st1" d="M55,490.6H0V332.1c0-37.1,28.5-67.6,64.7-70.9v-85c-16.6-3.1-29.1-17.6-29.1-35c0-6.2-5.1-11.3-11.3-11.3
						H0V64.3C0,29,28.7,0.3,63.9,0.3s63.9,28.7,63.9,63.9h-12.9c0-28.1-22.9-51-51-51s-51,22.9-51,51v52.6h11.3
						c13.4,0,24.3,10.9,24.3,24.3c0,12.5,10.2,22.7,22.7,22.7h6.5v110h-6.5c-32.1,0-58.3,26.1-58.3,58.3v145.6h29.1V345h34v12.9H55
						V490.6z"/>
				</g>
				<g>
					<rect x="147.2" y="288.4" class="st1" width="12.9" height="139.2"/>
				</g>
				<g>
					<path class="st1" d="M173.1,511.7H56.6v-12.9h103.6v-40.5h34v-165c0-32.1-26.1-58.3-58.3-58.3c-11.6,0-21-9.4-21-21V100.7h12.9
						v113.3c0,4.5,3.6,8.1,8.1,8.1c39.3,0,71.2,31.9,71.2,71.2v178h-34V511.7z"/>
				</g>
			</g>
			<g>
				<g>
					<path class="st1" d="M55,490.6H0V332.1c0-37.1,28.5-67.6,64.7-70.9v-85c-16.6-3.1-29.1-17.6-29.1-35c0-6.2-5.1-11.3-11.3-11.3
						H0V64.3C0,29,28.7,0.3,63.9,0.3s63.9,28.7,63.9,63.9h-12.9c0-28.1-22.9-51-51-51s-51,22.9-51,51v52.6h11.3
						c13.4,0,24.3,10.9,24.3,24.3c0,12.5,10.2,22.7,22.7,22.7h6.5v110h-6.5c-32.1,0-58.3,26.1-58.3,58.3v145.6h29.1V345h34v12.9H55
						V490.6z"/>
				</g>
				<g>
					<rect x="147.2" y="288.4" class="st1" width="12.9" height="139.2"/>
				</g>
				<g>
					<path class="st1" d="M173.1,511.7H55v-12.9h105.2v-40.5h34v-165c0-32.1-26.1-58.3-58.3-58.3c-11.6,0-21-9.4-21-21V100.7h12.9
						v113.3c0,4.5,3.6,8.1,8.1,8.1c39.3,0,71.2,31.9,71.2,71.2v178h-34V511.7z"/>
				</g>
			</g>
		</g>
		<g>
			<g>
				<g>
					<path class="st1" d="M297.7,490.6h-55V332.1c0-37.1,28.5-67.6,64.7-70.9v-85c-16.6-3.1-29.1-17.6-29.1-35
						c0-6.2-5.1-11.3-11.3-11.3h-24.3V64.3c0-35.2,28.7-63.9,63.9-63.9s63.9,28.7,63.9,63.9h-12.9c0-28.1-22.9-51-51-51
						s-51,22.9-51,51v52.6H267c13.4,0,24.3,10.9,24.3,24.3c0,12.5,10.2,22.7,22.7,22.7h6.5v110h-6.5c-32.1,0-58.3,26.1-58.3,58.3
						v145.6h29.1V345h34v12.9h-21V490.6z"/>
				</g>
				<g>
					<rect x="390" y="288.4" class="st1" width="12.9" height="139.2"/>
				</g>
				<g>
					<path class="st1" d="M415.9,511.7H299.4v-12.9h103.6v-40.5h34v-165c0-32.1-26.1-58.3-58.3-58.3c-11.6,0-21-9.4-21-21V100.7
						h12.9v113.3c0,4.5,3.6,8.1,8.1,8.1c39.3,0,71.2,31.9,71.2,71.2v178h-34V511.7z"/>
				</g>
			</g>
			<g>
				<g>
					<path class="st1" d="M297.7,490.6h-55V332.1c0-37.1,28.5-67.6,64.7-70.9v-85c-16.6-3.1-29.1-17.6-29.1-35
						c0-6.2-5.1-11.3-11.3-11.3h-24.3V64.3c0-35.2,28.7-63.9,63.9-63.9s63.9,28.7,63.9,63.9h-12.9c0-28.1-22.9-51-51-51
						s-51,22.9-51,51v52.6H267c13.4,0,24.3,10.9,24.3,24.3c0,12.5,10.2,22.7,22.7,22.7h6.5v110h-6.5c-32.1,0-58.3,26.1-58.3,58.3
						v145.6h29.1V345h34v12.9h-21V490.6z"/>
				</g>
				<g>
					<rect x="390" y="288.4" class="st1" width="12.9" height="139.2"/>
				</g>
				<g>
					<path class="st1" d="M415.9,511.7H297.7v-12.9h105.2v-40.5h34v-165c0-32.1-26.1-58.3-58.3-58.3c-11.6,0-21-9.4-21-21V100.7
						h12.9v113.3c0,4.5,3.6,8.1,8.1,8.1c39.3,0,71.2,31.9,71.2,71.2v178h-34V511.7z"/>
				</g>
			</g>
		</g>
		<g>
			<g>
				<g>
					<path class="st1" d="M540.5,490.6h-55V332.1c0-37.1,28.5-67.6,64.7-70.9v-85c-16.6-3.1-29.1-17.6-29.1-35
						c0-6.2-5.1-11.3-11.3-11.3h-24.3V64.3c0-35.2,28.7-63.9,63.9-63.9s63.9,28.7,63.9,63.9h-12.9c0-28.1-22.9-51-51-51
						c-28.1,0-51,22.9-51,51v52.6h11.3c13.4,0,24.3,10.9,24.3,24.3c0,12.5,10.2,22.7,22.7,22.7h6.5v110h-6.5
						c-32.1,0-58.3,26.1-58.3,58.3v145.6h29.1V345h34v12.9h-21V490.6z"/>
				</g>
				<g>
					<rect x="632.7" y="288.4" class="st1" width="12.9" height="139.2"/>
				</g>
				<g>
					<path class="st1" d="M658.6,511.7H542.1v-12.9h103.6v-40.5h34v-165c0-32.1-26.1-58.3-58.3-58.3c-11.6,0-21-9.4-21-21V100.7
						h12.9v113.3c0,4.5,3.6,8.1,8.1,8.1c39.3,0,71.2,31.9,71.2,71.2v178h-34V511.7z"/>
				</g>
			</g>
			<g>
				<g>
					<path class="st1" d="M540.5,490.6h-55V332.1c0-37.1,28.5-67.6,64.7-70.9v-85c-16.6-3.1-29.1-17.6-29.1-35
						c0-6.2-5.1-11.3-11.3-11.3h-24.3V64.3c0-35.2,28.7-63.9,63.9-63.9s63.9,28.7,63.9,63.9h-12.9c0-28.1-22.9-51-51-51
						c-28.1,0-51,22.9-51,51v52.6h11.3c13.4,0,24.3,10.9,24.3,24.3c0,12.5,10.2,22.7,22.7,22.7h6.5v110h-6.5
						c-32.1,0-58.3,26.1-58.3,58.3v145.6h29.1V345h34v12.9h-21V490.6z"/>
				</g>
				<g>
					<rect x="632.7" y="288.4" class="st1" width="12.9" height="139.2"/>
				</g>
				<g>
					<path class="st1" d="M658.6,511.7H540.5v-12.9h105.2v-40.5h34v-165c0-32.1-26.1-58.3-58.3-58.3c-11.6,0-21-9.4-21-21V100.7
						h12.9v113.3c0,4.5,3.6,8.1,8.1,8.1c39.3,0,71.2,31.9,71.2,71.2v178h-34V511.7z"/>
				</g>
			</g>
		</g>
		<g>
			<g>
				<g>
					<path class="st1" d="M783.2,490.6h-55V332.1c0-37.1,28.5-67.6,64.7-70.9v-85c-16.6-3.1-29.1-17.6-29.1-35
						c0-6.2-5.1-11.3-11.3-11.3h-24.3V64.3c0-35.2,28.7-63.9,63.9-63.9S856,29,856,64.3H843c0-28.1-22.9-51-51-51
						c-28.1,0-51,22.9-51,51v52.6h11.3c13.4,0,24.3,10.9,24.3,24.3c0,12.5,10.2,22.7,22.7,22.7h6.5v110h-6.5
						c-32.1,0-58.3,26.1-58.3,58.3v145.6h29.1V345h34v12.9h-21V490.6z"/>
				</g>
				<g>
					<rect x="875.4" y="288.4" class="st1" width="12.9" height="139.2"/>
				</g>
				<g>
					<path class="st1" d="M901.3,511.7H784.8v-12.9h103.6v-40.5h34v-165c0-32.1-26.1-58.3-58.3-58.3c-11.6,0-21-9.4-21-21V100.7H856
						v113.3c0,4.5,3.6,8.1,8.1,8.1c39.3,0,71.2,31.9,71.2,71.2v178h-34V511.7z"/>
				</g>
			</g>
			<g>
				<g>
					<path class="st1" d="M783.2,490.6h-55V332.1c0-37.1,28.5-67.6,64.7-70.9v-85c-16.6-3.1-29.1-17.6-29.1-35
						c0-6.2-5.1-11.3-11.3-11.3h-24.3V64.3c0-35.2,28.7-63.9,63.9-63.9S856,29,856,64.3H843c0-28.1-22.9-51-51-51
						c-28.1,0-51,22.9-51,51v52.6h11.3c13.4,0,24.3,10.9,24.3,24.3c0,12.5,10.2,22.7,22.7,22.7h6.5v110h-6.5
						c-32.1,0-58.3,26.1-58.3,58.3v145.6h29.1V345h34v12.9h-21V490.6z"/>
				</g>
				<g>
					<rect x="875.4" y="288.4" class="st1" width="12.9" height="139.2"/>
				</g>
				<g>
					<path class="st1" d="M901.3,511.7H783.2v-12.9h105.2v-40.5h34v-165c0-32.1-26.1-58.3-58.3-58.3c-11.6,0-21-9.4-21-21V100.7H856
						v113.3c0,4.5,3.6,8.1,8.1,8.1c39.3,0,71.2,31.9,71.2,71.2v178h-34V511.7z"/>
				</g>
			</g>
		</g>
		<g>
			<g>
				<g>
					<path class="st1" d="M1025.9,490.6h-55V332.1c0-37.1,28.5-67.6,64.7-70.9v-85c-16.6-3.1-29.1-17.6-29.1-35
						c0-6.2-5.1-11.3-11.3-11.3h-24.3V64.3c0-35.2,28.7-63.9,63.9-63.9c35.2,0,63.9,28.7,63.9,63.9h-12.9c0-28.1-22.9-51-51-51
						c-28.1,0-51,22.9-51,51v52.6h11.3c13.4,0,24.3,10.9,24.3,24.3c0,12.5,10.2,22.7,22.7,22.7h6.5v110h-6.5
						c-32.1,0-58.3,26.1-58.3,58.3v145.6h29.1V345h34v12.9h-21V490.6z"/>
				</g>
				<g>
					<rect x="1118.1" y="288.4" class="st1" width="12.9" height="139.2"/>
				</g>
				<g>
					<path class="st1" d="M1144,511.7h-116.5v-12.9h103.6v-40.5h34v-165c0-32.1-26.1-58.3-58.3-58.3c-11.6,0-21-9.4-21-21V100.7
						h12.9v113.3c0,4.5,3.6,8.1,8.1,8.1c39.3,0,71.2,31.9,71.2,71.2v178h-34V511.7z"/>
				</g>
			</g>
			<g>
				<g>
					<path class="st1" d="M1025.9,490.6h-55V332.1c0-37.1,28.5-67.6,64.7-70.9v-85c-16.6-3.1-29.1-17.6-29.1-35
						c0-6.2-5.1-11.3-11.3-11.3h-24.3V64.3c0-35.2,28.7-63.9,63.9-63.9c35.2,0,63.9,28.7,63.9,63.9h-12.9c0-28.1-22.9-51-51-51
						c-28.1,0-51,22.9-51,51v52.6h11.3c13.4,0,24.3,10.9,24.3,24.3c0,12.5,10.2,22.7,22.7,22.7h6.5v110h-6.5
						c-32.1,0-58.3,26.1-58.3,58.3v145.6h29.1V345h34v12.9h-21V490.6z"/>
				</g>
				<g>
					<rect x="1118.1" y="288.4" class="st1" width="12.9" height="139.2"/>
				</g>
				<g>
					<path class="st1" d="M1144,511.7h-118.1v-12.9h105.2v-40.5h34v-165c0-32.1-26.1-58.3-58.3-58.3c-11.6,0-21-9.4-21-21V100.7
						h12.9v113.3c0,4.5,3.6,8.1,8.1,8.1c39.3,0,71.2,31.9,71.2,71.2v178h-34V511.7z"/>
				</g>
			</g>
		</g>
	</g>
</g>
</svg>
